# xmcd
#
# Track frame offsets:
#	150
#	11792
#	25597
#	38697
#	50180
#	62372
#	75555
#	88647
#	100585
#	113687
#	125785
#	138867
#	150245
#	162860
#	173352
#	185045
#
# Disc length: 2624 seconds
#
# Revision: 2
# Processed by: cddbd v1.5.1PL0 Copyright (c) Steve Scherf et al.
# Submitted via: EasyCDDAExtractor 6.2.0.3
#
DISCID=b90a3e10
DTITLE=Robert Johnson - King Of The Delta Blues Singers
DYEAR=1994
DGENRE=Blues
TTITLE0=Crossroads Blues
TTITLE1=Terraplane Blues
TTITLE2=Come On In My Kitchen
TTITLE3=Walking Blues
TTITLE4=Last Fair Deal Gone Down
TTITLE5=32-20 Blues
TTITLE6=Kindhearted Woman Blues
TTITLE7=If I Had Possession Over Judgment Day
TTITLE8=Preaching Blues
TTITLE9=When You Got A Good Friend
TTITLE10=Rambling On My Mind
TTITLE11=Stones In My Passway
TTITLE12=Traveling Riverside Blues
TTITLE13=Milkcow's Calf Blues
TTITLE14=Me And The Devil Blues
TTITLE15=Hellhound On My Trail
EXTD=YEAR - 1994\nColumbia (SONY Music)  484419 2
EXTT0=
EXTT1=
EXTT2=
EXTT3=
EXTT4=
EXTT5=
EXTT6=
EXTT7=
EXTT8=
EXTT9=
EXTT10=
EXTT11=
EXTT12=
EXTT13=
EXTT14=
EXTT15=
PLAYORDER=
